<svg width="800" height="800" viewBox="0 0 800 800" fill="none" xmlns="http://www.w3.org/2000/svg">
<path fill-rule="evenodd" clip-rule="evenodd" d="M163.839 389.211L153 400.398L163.839 411.585L286.474 538.161C292.461 544.34 302.167 544.34 308.153 538.161C314.14 531.982 314.14 521.966 308.153 515.787L196.358 400.398L308.153 285.01C314.14 278.831 314.14 268.813 308.153 262.634C302.167 256.455 292.461 256.455 286.474 262.634L163.839 389.211ZM635.178 389.211L646.019 400.398L635.178 411.585L512.543 538.161C506.559 544.34 496.852 544.34 490.866 538.161C484.879 531.982 484.879 521.966 490.866 515.787L602.662 400.398L490.866 285.01C484.879 278.831 484.879 268.813 490.866 262.634C496.852 256.455 506.559 256.455 512.543 262.634L635.178 389.211Z" fill="#161616"/>
</svg>
